<svg aria-hidden="true" style="position: absolute; width: 0; height: 0; overflow: hidden;" version="1.1" xmlns="http://www.w3.org/2000/svg" xmlns:xlink="http://www.w3.org/1999/xlink">
<defs>
<symbol id="Flashlight-0" viewBox="0 0 108 24">
<title>Flashlight-0</title>
<path d="M107.617 10.431c-0.334-7.464-1.912-10.104-1.978-10.213l-0.069-0.111-102.013-0.096c-0.511 0.145-0.957 0.344-1.367 0.595l0.024-0.013c-0.234 0.281-0.435 0.601-0.59 0.947l-0.011 0.026c-0.924 3.064-1.504 6.597-1.607 10.25l-0.001 0.057h-0.004c0.090 3.712 0.66 7.255 1.648 10.619l-0.073-0.29c0.165 0.373 0.365 0.694 0.603 0.983l-0.006-0.007c0.386 0.24 0.832 0.439 1.304 0.577l0.038 0.010 0.034 0.011 101.979 0.225 0.069-0.111c0.068-0.108 1.654-2.743 2.012-10.207 0.006-0.159 0.010-0.346 0.010-0.534 0-0.374-0.014-0.744-0.042-1.111l0.003 0.049c0.030-0.35 0.046-0.758 0.046-1.17 0-0.171-0.003-0.341-0.009-0.51l0.001 0.025zM3.622 23.306c-0.435-0.125-0.813-0.289-1.164-0.494l0.024 0.013c-0.177-0.229-0.334-0.49-0.46-0.768l-0.010-0.025c-0.893-3.017-1.45-6.495-1.541-10.090l-0.001-0.051h0.003c0.103-3.655 0.671-7.135 1.648-10.441l-0.073 0.288c0.136-0.302 0.294-0.562 0.479-0.8l-0.007 0.009c0.328-0.191 0.707-0.353 1.106-0.468l0.036-0.009 18.804 0.019c-0.16 1.224-1.051 8.16-1.092 10.674-0.003 0.208-0.001 0.449 0.004 0.711h-0.003c-0.005 0.177-0.009 0.385-0.009 0.594 0 0.071 0 0.143 0.001 0.214l-0-0.011c0.033 2.514 0.902 9.453 1.057 10.677zM107.14 13.66c-0.312 6.49-1.586 9.301-1.882 9.871l-82.36-0.182c-0.127-1-1.029-8.184-1.061-10.684-0.003-0.205 0-0.444 0.006-0.703h0.006c-0.007-0.295-0.009-0.562-0.006-0.791 0.041-2.499 0.966-9.681 1.097-10.681l82.36 0.086c0.293 0.571 1.559 3.386 1.85 9.876 0.005 0.138 0.008 0.3 0.008 0.462 0 0.338-0.012 0.672-0.037 1.004l0.003-0.044h-0.028c0.006 0.071 0.009 0.14 0.014 0.211-0.004 0.052-0.007 0.101-0.011 0.153h0.021c0.020 0.272 0.031 0.59 0.031 0.911 0 0.18-0.004 0.359-0.011 0.537l0.001-0.026z"></path>
</symbol>
<symbol id="Flashlight-1" viewBox="0 0 24 24">
<title>Flashlight-1</title>
<path d="M12 0c-6.627 0-12 5.373-12 12s5.373 12 12 12c6.627 0 12-5.373 12-12v0c-0.008-6.624-5.376-11.992-11.999-12h-0.001zM12 23.66c-6.44 0-11.66-5.22-11.66-11.66s5.22-11.66 11.66-11.66c6.44 0 11.66 5.22 11.66 11.66v0c-0.008 6.437-5.223 11.652-11.659 11.66h-0.001z"></path>
<path d="M12 8.721c0 0 0 0 0 0-1.811 0-3.279 1.468-3.279 3.279s1.468 3.279 3.279 3.279c1.811 0 3.279-1.468 3.279-3.279v0c-0.002-1.81-1.469-3.277-3.279-3.279h-0zM12 14.939c0 0 0 0 0 0-1.623 0-2.939-1.316-2.939-2.939s1.316-2.939 2.939-2.939c1.623 0 2.939 1.316 2.939 2.939v0c-0.002 1.623-1.317 2.937-2.939 2.939h-0z"></path>
<path d="M12 3.901c-4.473 0-8.098 3.626-8.098 8.098s3.626 8.098 8.098 8.098c4.473 0 8.098-3.626 8.098-8.098v0c0-0.001 0-0.003 0-0.005 0-4.47-3.624-8.094-8.094-8.094-0.002 0-0.003 0-0.005 0h0zM12 19.758c-4.285 0-7.758-3.474-7.758-7.758s3.474-7.758 7.758-7.758c4.285 0 7.758 3.474 7.758 7.758 0 0 0 0 0 0v0c-0.005 4.283-3.476 7.753-7.758 7.758h-0z"></path>
<path d="M12 0.762c-6.207 0-11.238 5.032-11.238 11.238s5.032 11.238 11.238 11.238c6.207 0 11.238-5.032 11.238-11.238v0c-0.007-6.204-5.035-11.231-11.238-11.238h-0.001zM12 22.898c-6.019 0-10.898-4.879-10.898-10.898s4.879-10.898 10.898-10.898c6.019 0 10.898 4.879 10.898 10.898v0c-0.007 6.016-4.882 10.891-10.898 10.898h-0.001z"></path>
<path d="M12.001 11.123c0 0 0 0 0 0-0.553 0-1.002 0.449-1.002 1.002s0.449 1.002 1.002 1.002c0.553 0 1.002-0.449 1.002-1.002v0c-0.001-0.553-0.449-1.002-1.002-1.002h-0zM12.001 12.787c0 0 0 0 0 0-0.366 0-0.662-0.296-0.662-0.662s0.296-0.662 0.662-0.662c0.366 0 0.662 0.296 0.662 0.662 0 0 0 0 0 0v0c-0 0.365-0.297 0.661-0.662 0.662h-0z"></path>
<path d="M2.31 12c0-0.001 0-0.002 0-0.003 0-0.758 0.087-1.496 0.25-2.204l-0.013 0.066-0.332-0.075c-0.156 0.663-0.246 1.425-0.246 2.208 0 5.083 3.778 9.285 8.679 9.949l0.052 0.006 0.043-0.337c-4.781-0.65-8.427-4.703-8.434-9.608v-0.001z"></path>
<path d="M14.982 2.421l-0.101 0.325c3.978 1.272 6.808 4.937 6.808 9.262 0 0.875-0.116 1.722-0.333 2.528l0.016-0.068 0.329 0.086c0.208-0.764 0.328-1.642 0.328-2.547 0-4.477-2.929-8.27-6.976-9.567l-0.071-0.020z"></path>
</symbol>
<symbol id="Flashlight-2" viewBox="0 0 24 24">
<title>Flashlight-2</title>
<path d="M12 0c-0 0-0 0-0 0-6.627 0-12 5.373-12 12s5.373 12 12 12c6.627 0 12-5.373 12-12 0-0 0-0 0-0v0c-0.008-6.624-5.376-11.992-11.999-12h-0.001zM12 23.66c-0 0-0 0-0 0-6.44 0-11.66-5.22-11.66-11.66s5.22-11.66 11.66-11.66c6.44 0 11.66 5.22 11.66 11.66v0c-0.007 6.437-5.223 11.653-11.659 11.66h-0.001z"></path>
<path d="M12 0.761c-0 0-0.001 0-0.001 0-6.206 0-11.237 5.031-11.237 11.237 0 5.732 4.292 10.461 9.837 11.151l0.055 0.006c0.010 0.011 0.017 0.023 0.027 0.033l0.026-0.026c0.388 0.049 0.837 0.077 1.292 0.077 0.501 0 0.994-0.034 1.478-0.099l-0.056 0.006 0.012 0.011c0.004-0.004 0.007-0.010 0.010-0.014 5.555-0.739 9.796-5.446 9.796-11.144 0-6.206-5.031-11.237-11.237-11.237-0.001 0-0.001 0-0.002 0h0zM10.831 22.835c-0.073-0.114-0.117-0.254-0.117-0.404 0-0.001 0-0.001 0-0.002v0c-0.001-0.010-0.001-0.022-0.001-0.034 0-0.352 0.274-0.64 0.621-0.662l0.002-0h1.411c0.349 0.022 0.623 0.31 0.623 0.662 0 0.012-0 0.024-0.001 0.036l0-0.002c0 0.001 0 0.003 0 0.004 0 0.144-0.041 0.279-0.112 0.393l0.002-0.003c-0.38 0.048-0.819 0.075-1.264 0.075-0.41 0-0.815-0.023-1.213-0.068l0.049 0.004zM13.651 22.773c0.036-0.102 0.057-0.221 0.058-0.344v-0c0-0.010 0.001-0.022 0.001-0.035 0-0.54-0.427-0.98-0.961-1.002l-0.002-0h-1.411c-0.536 0.022-0.963 0.462-0.963 1.002 0 0.012 0 0.024 0.001 0.036l-0-0.002c0.001 0.128 0.024 0.25 0.065 0.363l-0.002-0.008c-5.302-0.794-9.322-5.317-9.322-10.778 0-6.015 4.877-10.892 10.892-10.892s10.892 4.877 10.892 10.892c0 5.435-3.981 9.94-9.186 10.759l-0.062 0.008z"></path>
<path d="M17.468 13h-11.005c-0.286 0-0.517 0.232-0.517 0.517v3.929c0 0.286 0.232 0.517 0.517 0.517h11.005c0.286-0 0.517-0.232 0.517-0.517v-3.929c-0-0.286-0.232-0.517-0.517-0.517h-0zM8.749 17.515v-0.17h0.648v0.17zM14.978 17.504v-0.181h0.485v0.181zM17.645 17.446c-0 0.098-0.079 0.177-0.177 0.177h-1.664v-0.64h-1.165v0.64h-4.902v-0.619h-1.328v0.619h-1.946c-0.098-0-0.177-0.079-0.177-0.177v-3.929c0-0.098 0.080-0.177 0.177-0.177h11.005c0.098 0 0.177 0.079 0.177 0.177v0z"></path>
<path d="M7.255 6.9c-1.095 0-1.982 0.888-1.982 1.983s0.888 1.983 1.983 1.983c1.095 0 1.982-0.888 1.983-1.982v0c-0.001-1.094-0.888-1.981-1.982-1.983h-0zM7.255 10.525c-0.907-0-1.642-0.735-1.642-1.642s0.735-1.642 1.642-1.642 1.642 0.735 1.642 1.642c0 0 0 0 0 0v0c-0.001 0.907-0.736 1.642-1.642 1.642h-0z"></path>
<path d="M7.222 8.442c-0.298 0-0.539 0.241-0.539 0.539s0.241 0.539 0.539 0.539c0.298 0 0.539-0.241 0.539-0.539v0c-0-0.298-0.241-0.539-0.539-0.539h-0zM7.222 9.179c-0.11 0-0.199-0.089-0.199-0.199s0.089-0.199 0.199-0.199c0.11 0 0.199 0.089 0.199 0.199v0c-0 0.11-0.089 0.199-0.199 0.199h-0z"></path>
<path d="M10.459 9.069l0.856 0.951 5.555-0.096 0.873-0.943 0.053-1.364h-7.312zM10.819 7.957h6.624l-0.034 0.885-0.689 0.744-5.255 0.091-0.663-0.736z"></path>
<path d="M16.361 6.032h-9.117c-1.496 0.002-2.708 1.214-2.71 2.71v0.065c0.002 1.496 1.214 2.708 2.71 2.71h9.117c1.496-0.002 2.708-1.214 2.71-2.71v-0.065c-0.002-1.496-1.214-2.708-2.709-2.71h-0zM18.73 8.807c-0.002 1.308-1.061 2.368-2.369 2.37h-9.117c-1.308-0.001-2.368-1.062-2.37-2.37v-0.065c0.002-1.308 1.062-2.368 2.37-2.37h9.117c1.308 0.002 2.368 1.062 2.37 2.37v0z"></path>
<path d="M16.665 13.738h-9.334c-0.334 0-0.604 0.271-0.604 0.604v0.369c0 0.334 0.271 0.604 0.604 0.604h9.334c0.334-0 0.604-0.271 0.604-0.604v-0.369c-0-0.334-0.271-0.604-0.604-0.604h-0zM16.929 14.711c-0 0.146-0.118 0.264-0.264 0.264h-9.334c-0.146-0-0.264-0.118-0.264-0.264v-0.369c0-0.146 0.118-0.264 0.264-0.264h9.334c0.146 0 0.264 0.118 0.264 0.264v0z"></path>
<path d="M12.719 8.062h2.8v0.34h-2.8v-0.34z"></path>
</symbol>
</defs>
</svg>
